# xmcd
#
# Track frame offsets: 
#        150
#        11104
#        22186
#        34799
#        48310
#        60434
#        73781
#        86478
#        99106
#        110755
#        124546
#        140026
#        153465
#        168266
#        181315
#        194495
#        209275
#        222529
#        235249
#        249010
#        261737
#        274198
#        287513
#        300524
#        313223
#        326082
#
# Disc length: 4535 seconds
#
# Revision: 0
# Processed by: cddbd v1.5.2PL0 Copyright (c) Steve Scherf et al.
# Submitted via: ExactAudioCopy v0.99pb5
#
DISCID=8311b51a
DTITLE=Various Artist - How Low Can You Go (Disk 3, Bill Johnson)
DYEAR=2006
DGENRE=Jazz
TTITLE0=Dixie Four/Kentucky Stomp
TTITLE1=Dixie Four/Saint Louis Man
TTITLE2=State Street Ramblers/Endurance Stomp
TTITLE3=State Street Ramblers/Tuxedo Stomp
TTITLE4=State Street Ramblers/Brown Skin Mama
TTITLE5=State Street Ramblers/St. Louis Nightmare
TTITLE6=State Street Ramblers/Tell Me Cutie
TTITLE7=State Street Ramblers/Some Day You'll Know
TTITLE8=Junie C. Cobb And His Grains Of Corn/Endurance Stomp (Take A)
TTITLE9=The Midnight Rounders/Shake Your Shimmy
TTITLE10=The Midnight Rounders/Bull Fiddle Rag (Take A)
TTITLE11=Junie C. Cobb And His Grains Of Corn/Shake That Jelly Roll
TTITLE12=Junie C. Cobb And His Grains Of Corn/Don't Cry, Honey
TTITLE13="Banjo" Ikey Robinson And His Bull Fiddle Band/My Four Reason
TTITLE13=s
TTITLE14=Rev. D.C. Rice And His Sanctified Congregation/He's Got His E
TTITLE14=yes On You
TTITLE15=Rev. D.C. Rice And His Sanctified Congregation/I'm In The Bat
TTITLE15=tlefield For My Lord
TTITLE16=Cotton Top Mountain Sanctified Singers/She's Coming 'Round Th
TTITLE16=e Mountain
TTITLE17=Rev. D.C. Rice And His Sanctified Congregation/I'm Pressing O
TTITLE17=n
TTITLE18=Rev. D.C. Rice And His Sanctified Congregation/No Night There
TTITLE19=Chippie Hill/I Ain't Gonna Do It No More
TTITLE20=Chippie Hill/Pratt City Blues
TTITLE21=Bill Johnson's Louisiana Jug Band/Get The "L" Down The Road
TTITLE22=Bill Johnson's Louisiana Jug Band/Don't Drink It In Here
TTITLE23=Tampa Red's Hokum Jug Band/I Wonder Where My Easy Rider's Gon
TTITLE23=e
TTITLE24=Tampa Red's Hokum Jug Band/Come On Mama Do That Dance
TTITLE25=The Midnight Rounders/Bull Fiddle Rag (Take B)
EXTD=
EXTT0=
EXTT1=
EXTT2=
EXTT3=
EXTT4=
EXTT5=
EXTT6=
EXTT7=
EXTT8=
EXTT9=
EXTT10=
EXTT11=
EXTT12=
EXTT13=
EXTT14=
EXTT15=
EXTT16=
EXTT17=
EXTT18=
EXTT19=
EXTT20=
EXTT21=
EXTT22=
EXTT23=
EXTT24=
EXTT25=
PLAYORDER=
